<svg width="673" height="287" viewBox="0 0 673 287" fill="none" xmlns="http://www.w3.org/2000/svg">
<g clip-path="url(#clip0_1_2)">
<rect width="673" height="287" fill="white"/>
<path d="M106.975 70.195L41.2175 5.08683L41.2175 109.066L106.975 70.195Z" fill="#F0E5C7"/>
<path d="M4.81974 100.3L41.2175 5.08683L39.9977 108.967L4.81974 100.3Z" fill="#DCCDA5"/>
<path d="M4.81974 100.3L41.2175 5.08683L3.29026 38.852L4.81974 100.3Z" fill="#F0E5C7"/>
<path d="M154.191 69.6217L270.439 71.2403L253.615 3.9433L154.191 69.6217Z" fill="#DCCDA5"/>
<path d="M337.226 3.43348L270.439 71.2403L253.615 3.9433L337.226 3.43348Z" fill="#F0E5C7"/>
<path d="M337.226 3.43348L270.439 71.2403L337.736 145.165L337.226 3.43348Z" fill="#EADAAE"/>
<path d="M336.716 285.367L270.439 219.6L337.736 145.165L336.716 285.367Z" fill="#EADAAE"/>
<path d="M270.439 70.2207L270.439 219.6L337.736 145.165L270.439 70.2207Z" fill="#F0E5C7"/>
<path d="M107.304 219.235L41.2175 180.285L41.2175 281.843L107.304 219.235Z" fill="#F0E5C7"/>
<path d="M100.721 169.142L41.2175 180.285L30.4705 144.433L100.721 169.142Z" fill="#F0E5C7"/>
<path d="M100.721 169.142L101.69 119.725L30.4705 144.433L100.721 169.142Z" fill="#EADAAE"/>
<path d="M3.82392 191.913L41.2175 180.285L30.4705 144.433L3.82392 191.913Z" fill="#EADAAE"/>
<path d="M3.82392 191.913L5.27738 101.314L30.4705 144.433L3.82392 191.913Z" fill="#F0E5C7"/>
<path d="M100.721 169.142L41.2175 180.285L105.566 218.075L100.721 169.142Z" fill="#DCCDA5"/>
<path d="M100.721 169.142L155.467 220.013L105.566 218.075L100.721 169.142Z" fill="#F0E5C7"/>
<path d="M273.624 218.413L155.467 220.013L99.6011 167.43L273.624 218.413Z" fill="#EADAAE"/>
<path d="M269.806 217.59L102.306 119.273L100.448 167.727L269.806 217.59Z" fill="#F0E5C7"/>
<path d="M269.806 217.59L102.618 118.961L270.765 71.0161L269.806 217.59Z" fill="#DCCDA5"/>
<path d="M101.205 119.725L41.1292 109.066L30.4705 144.433L101.205 119.725Z" fill="#F0E5C7"/>
<path d="M3.98763 100.22L41.1292 109.066L30.4705 144.433L3.98763 100.22Z" fill="#EADAAE"/>
<path d="M101.205 119.725L41.1292 109.066L107.019 70.3072L101.205 119.725Z" fill="#DCCDA5"/>
<path d="M101.205 119.725L155.467 69.8227L107.019 70.3072L101.205 119.725Z" fill="#F0E5C7"/>
<path d="M101.205 119.725L155.467 69.8227L270.486 71.0161L101.205 119.725Z" fill="#EADAAE"/>
<path d="M4.81974 190.03L40.5076 181.363L41.2175 281.843L4.81974 190.03Z" fill="#DCCDA5"/>
<path d="M4.81974 190.03L3.80009 250.035L41.0174 284.348L4.81974 190.03Z" fill="#F0E5C7"/>
<path d="M111.833 23.7967L41.5826 5.38633L106.988 69.3382L111.833 23.7967Z" fill="#EADAAE"/>
<path d="M111.833 23.7967L154.498 69.8227L106.988 69.3382L111.833 23.7967Z" fill="#DCCDA5"/>
<path d="M111.833 23.7967L154.498 69.8227L107.359 70.195L111.833 23.7967Z" fill="#DCCDA5"/>
<path d="M111.833 23.7967L252.604 3.84343L154.983 70.3072L111.833 23.7967Z" fill="#F0E5C7"/>
<path d="M111.833 23.7967L250.426 4.41736L41.1292 4.41736L111.833 23.7967Z" fill="#DCCDA5"/>
<path d="M111.833 264.101L41.5826 282.511L106.988 218.559L111.833 264.101Z" fill="#EADAAE"/>
<path d="M111.833 264.101L153.529 219.044L106.988 218.559L111.833 264.101Z" fill="#DCCDA5"/>
<path d="M111.833 264.101L250.426 283.48L153.529 220.013L111.833 264.101Z" fill="#F0E5C7"/>
<path d="M111.833 264.101L250.426 283.48L41.1292 283.48L111.833 264.101Z" fill="#DCCDA5"/>
<path d="M153.045 220.013L253.105 286.387L270.949 218.58L153.045 220.013Z" fill="#DCCDA5"/>
<path d="M335.697 284.857L253.105 286.387L270.949 218.58L335.697 284.857Z" fill="#F0E5C7"/>
<path d="M40.3828 4.34332V284.411" stroke="#8E8D8D"/>
<path d="M5.06268 99.9155L39.5518 109.057" stroke="#8E8D8D"/>
<path d="M635.434 284.411L635.434 4.34332" stroke="#8E8D8D"/>
<path d="M670.754 188.839L636.265 179.698" stroke="#8E8D8D"/>
<circle cx="107.245" cy="71.2661" r="48.1075" stroke="#8E8D8D"/>
<circle cx="107.245" cy="71.2661" r="3.74503" fill="#FF0303"/>
<path d="M87.6455 67.8895H100.576V58.243M113.609 58.5508V67.9921H126.847M126.847 74.3547H113.917V84.1039M100.884 84.0012V74.3547H87.235M102.351 12.8441V23.5826M112.403 12.8558V23.4962M102.146 129.805V119.356M112.403 129.805V119.452" stroke="#8E8D8D"/>
<circle cx="270.639" cy="71.1888" r="3.74503" fill="#FF0303"/>
<circle cx="404.724" cy="71.1888" r="3.74503" fill="black"/>
<circle cx="404.724" cy="71.1888" r="3.74503" fill="#FF0303"/>
<circle cx="337.681" cy="144.616" r="3.74503" fill="#FF0303"/>
<circle cx="270.639" cy="218.624" r="3.74503" fill="#FF0303"/>
<circle cx="404.724" cy="218.624" r="3.74503" fill="#FF0303"/>
<circle cx="107.245" cy="217.61" r="48.1075" stroke="#8E8D8D"/>
<circle cx="107.245" cy="217.61" r="3.74503" fill="#FF0303"/>
<path d="M87.6455 214.234H100.576V204.587M113.609 204.895V214.336H126.847M126.847 220.699H113.917V230.448M100.884 230.345V220.699H87.235M102.351 159.188V169.927M112.403 159.2V169.84M102.146 276.149V265.7M112.403 276.149V265.796" stroke="#8E8D8D"/>
<circle cx="567.958" cy="217.61" r="48.1075" stroke="#8E8D8D"/>
<circle cx="567.958" cy="217.61" r="3.74503" fill="#8E8D8D"/>
<path d="M548.359 214.234H561.289V204.587M574.322 204.895V214.336H587.561M587.561 220.699H574.63V230.448M561.597 230.345V220.699H547.948M563.064 159.188V169.927M573.116 159.2V169.84M562.859 276.149V265.7M573.116 276.149V265.796" stroke="#8E8D8D"/>
<circle cx="567.958" cy="71.7588" r="48.1075" stroke="#8E8D8D"/>
<circle cx="567.958" cy="71.7588" r="3.74503" fill="#8E8D8D"/>
<path d="M548.359 68.3822H561.289V58.7357M574.322 59.0436V68.4848H587.561M587.561 74.8475H574.63V84.5966M561.597 84.494V74.8475H547.948M563.064 13.3368V24.0753M573.116 13.3485V23.989M562.859 130.298V119.849M573.116 130.298V119.945" stroke="#8E8D8D"/>
<circle cx="337.355" cy="144.685" r="48.1075" stroke="#8E8D8D"/>
<path d="M40.6002 131.644H55.2054C56.8045 133.208 60.0028 137.934 60.0028 144.331C60.0028 150.727 56.7335 156.093 55.0988 157.976H40.387M40.1738 133.883H29.2998V156.377H39.9605" stroke="black"/>
<path d="M40.6002 131.644H55.2054C56.8045 133.208 60.0028 137.934 60.0028 144.331C60.0028 150.727 56.7335 156.093 55.0988 157.976H40.387M40.1738 133.883H29.2998V156.377H39.9605" stroke="#8E8D8D"/>
<path d="M635.048 157.976L620.442 157.976C618.843 156.413 615.645 151.686 615.645 145.29C615.645 138.894 618.914 133.528 620.549 131.644L635.261 131.644M635.474 155.738L646.348 155.738L646.348 133.243L635.687 133.243" stroke="#8E8D8D"/>
<path d="M40.3828 180.944L3.81609 191.332" stroke="#8E8D8D"/>
<path d="M421.108 3.17251V286.006" stroke="#021BFF" stroke-width="3"/>
<path d="M254.068 2.18703V286.006" stroke="black"/>
<path d="M254.068 2.18703V286.006" stroke="#021BFF" stroke-width="3"/>
<path d="M337.653 2.18703V286.006" stroke="#FF0303" stroke-width="3"/>
<path d="M635.434 107.811L672 97.4223" stroke="#8E8D8D"/>
<rect x="4.37429" y="2.84523" width="667.336" height="283.419" rx="44" stroke="#8E8D8D" stroke-width="2"/>
<rect x="108.168" y="18.6189" width="7.68651" height="7.68651" stroke="#2400FF"/>
<rect x="108.168" y="261.979" width="7.68651" height="7.68651" stroke="#2400FF"/>
<rect x="150.75" y="65.5847" width="7.68651" height="7.68651" stroke="#2400FF"/>
<rect x="150.75" y="214.766" width="7.68651" height="7.68651" stroke="#2400FF"/>
<rect x="98.1487" y="114.847" width="7.68651" height="7.68651" stroke="#2400FF"/>
<rect x="98.1487" y="166.288" width="7.68651" height="7.68651" stroke="#2400FF"/>
<rect x="0.804794" y="32.9352" width="7.68651" height="7.68651" stroke="#2400FF"/>
<rect x="0.804794" y="244.638" width="7.68651" height="7.68651" stroke="#2400FF"/>
<rect x="26.1301" y="139.776" width="7.68651" height="7.68651" stroke="#2400FF"/>
<path d="M43.6041 16.1494V7.42213H44.6609V15.2119H48.7177V16.1494H43.6041ZM50.2007 16.1494V15.3824L53.0814 12.2289C53.4194 11.8596 53.6979 11.5386 53.9166 11.2659C54.1354 10.9903 54.2973 10.7318 54.4024 10.4903C54.5104 10.246 54.5643 9.99031 54.5643 9.72326C54.5643 9.41644 54.4905 9.15082 54.3427 8.92639C54.1979 8.70196 53.999 8.52866 53.7461 8.4065C53.4933 8.28434 53.2092 8.22326 52.8939 8.22326C52.5586 8.22326 52.266 8.29286 52.016 8.43207C51.7689 8.56843 51.5771 8.76019 51.4407 9.00735C51.3072 9.25451 51.2405 9.54429 51.2405 9.87667H50.2348C50.2348 9.36531 50.3527 8.91644 50.5885 8.53008C50.8243 8.14372 51.1453 7.84258 51.5515 7.62667C51.9606 7.41076 52.4194 7.30281 52.928 7.30281C53.4393 7.30281 53.8925 7.41076 54.2873 7.62667C54.6822 7.84258 54.9919 8.13377 55.2163 8.50025C55.4407 8.86673 55.553 9.2744 55.553 9.72326C55.553 10.0443 55.4947 10.3582 55.3782 10.665C55.2646 10.969 55.0657 11.3085 54.7817 11.6835C54.5004 12.0556 54.1098 12.5102 53.6098 13.0471L51.6496 15.1437V15.2119H55.7064V16.1494H50.2007ZM60.5345 7.42213V16.1494H59.4777V8.53008H59.4265L57.2959 9.94485V8.87099L59.4777 7.42213H60.5345Z" fill="#0D0C0C"/>
<path d="M118.329 27.1718V18.4446H119.386V26.2343H123.442V27.1718H118.329ZM127.874 27.2912C127.312 27.2912 126.81 27.1946 126.37 27.0014C125.933 26.8082 125.585 26.5397 125.326 26.196C125.07 25.8494 124.931 25.4474 124.908 24.99H125.982C126.005 25.2713 126.102 25.5142 126.272 25.7187C126.442 25.9204 126.666 26.0767 126.941 26.1875C127.217 26.2983 127.522 26.3537 127.857 26.3537C128.232 26.3537 128.565 26.2883 128.854 26.1576C129.144 26.027 129.371 25.8451 129.536 25.6122C129.701 25.3792 129.783 25.1093 129.783 24.8025C129.783 24.4815 129.704 24.1988 129.545 23.9545C129.386 23.7073 129.153 23.5142 128.846 23.375C128.539 23.2358 128.164 23.1662 127.721 23.1662H127.022V22.2287H127.721C128.067 22.2287 128.371 22.1662 128.633 22.0412C128.897 21.9162 129.103 21.74 129.251 21.5127C129.401 21.2855 129.477 21.0184 129.477 20.7116C129.477 20.4162 129.411 20.1591 129.281 19.9403C129.15 19.7216 128.965 19.5511 128.727 19.4289C128.491 19.3068 128.212 19.2457 127.891 19.2457C127.59 19.2457 127.306 19.3011 127.039 19.4119C126.775 19.5198 126.559 19.6775 126.391 19.8849C126.224 20.0895 126.133 20.3366 126.119 20.6264H125.096C125.113 20.169 125.251 19.7684 125.509 19.4247C125.768 19.0781 126.106 18.8082 126.523 18.615C126.944 18.4218 127.406 18.3252 127.908 18.3252C128.448 18.3252 128.911 18.4346 129.298 18.6534C129.684 18.8693 129.981 19.1548 130.188 19.5099C130.396 19.865 130.499 20.2485 130.499 20.6605C130.499 21.152 130.37 21.571 130.112 21.9176C129.856 22.2642 129.508 22.5042 129.067 22.6377V22.7059C129.619 22.7968 130.049 23.0312 130.359 23.4091C130.668 23.7841 130.823 24.2485 130.823 24.8025C130.823 25.277 130.694 25.7031 130.435 26.0809C130.18 26.4559 129.83 26.7514 129.387 26.9673C128.944 27.1832 128.44 27.2912 127.874 27.2912ZM135.634 18.4446V27.1718H134.577V19.5525H134.526L132.396 20.9673V19.8934L134.577 18.4446H135.634Z" fill="#0D0C0C"/>
<path d="M161.236 74.5892V65.8619H162.293V73.6517H166.349V74.5892H161.236ZM167.628 72.7994V71.9301L171.463 65.8619H172.094V67.2085H171.668L168.77 71.7937V71.8619H173.935V72.7994H167.628ZM171.736 74.5892V72.5352V72.1304V65.8619H172.742V74.5892H171.736ZM178.483 65.8619V74.5892H177.426V66.9699H177.375L175.244 68.3847V67.3108L177.426 65.8619H178.483Z" fill="#0D0C0C"/>
<path d="M258.213 16.6339V7.90661H259.27V15.6964H263.327V16.6339H258.213ZM267.537 16.7532C267.037 16.7532 266.586 16.6538 266.186 16.4549C265.785 16.256 265.464 15.9833 265.223 15.6367C264.981 15.2901 264.849 14.8952 264.827 14.4521H265.849C265.889 14.847 266.068 15.1737 266.386 15.4322C266.707 15.6879 267.091 15.8157 267.537 15.8157C267.895 15.8157 268.213 15.7319 268.491 15.5643C268.773 15.3967 268.993 15.1666 269.152 14.8739C269.314 14.5785 269.395 14.2447 269.395 13.8725C269.395 13.4918 269.311 13.1524 269.143 12.8541C268.979 12.5529 268.751 12.3157 268.461 12.1424C268.172 11.9691 267.841 11.881 267.469 11.8782C267.202 11.8754 266.927 11.9166 266.646 12.0018C266.365 12.0842 266.133 12.1907 265.952 12.3214L264.963 12.2021L265.491 7.90661H270.025V8.84411H266.378L266.071 11.418H266.122C266.301 11.2759 266.525 11.158 266.795 11.0643C267.065 10.9705 267.346 10.9237 267.639 10.9237C268.173 10.9237 268.649 11.0515 269.067 11.3072C269.487 11.56 269.817 11.9066 270.055 12.347C270.297 12.7873 270.417 13.2901 270.417 13.8555C270.417 14.4123 270.292 14.9095 270.042 15.347C269.795 15.7816 269.454 16.1254 269.02 16.3782C268.585 16.6282 268.091 16.7532 267.537 16.7532ZM275.178 7.90661V16.6339H274.122V9.01457H274.07L271.94 10.4293V9.35547L274.122 7.90661H275.178Z" fill="#0D0C0C"/>
<path d="M275.78 76.7099V67.9826H276.836V75.7724H280.893V76.7099H275.78ZM285.103 76.8292C284.603 76.8292 284.153 76.7298 283.753 76.5309C283.352 76.3321 283.031 76.0593 282.789 75.7127C282.548 75.3661 282.416 74.9713 282.393 74.5281H283.416C283.456 74.923 283.635 75.2497 283.953 75.5082C284.274 75.7639 284.657 75.8917 285.103 75.8917C285.461 75.8917 285.78 75.8079 286.058 75.6403C286.339 75.4727 286.559 75.2426 286.718 74.9499C286.88 74.6545 286.961 74.3207 286.961 73.9485C286.961 73.5678 286.878 73.2284 286.71 72.9301C286.545 72.6289 286.318 72.3917 286.028 72.2184C285.738 72.0451 285.407 71.9571 285.035 71.9542C284.768 71.9514 284.494 71.9926 284.213 72.0778C283.932 72.1602 283.7 72.2667 283.518 72.3974L282.53 72.2781L283.058 67.9826H287.592V68.9201H283.944L283.638 71.494H283.689C283.868 71.3519 284.092 71.234 284.362 71.1403C284.632 71.0465 284.913 70.9997 285.206 70.9997C285.74 70.9997 286.216 71.1275 286.633 71.3832C287.054 71.636 287.383 71.9826 287.622 72.423C287.863 72.8633 287.984 73.3661 287.984 73.9315C287.984 74.4883 287.859 74.9855 287.609 75.423C287.362 75.8576 287.021 76.2014 286.586 76.4542C286.152 76.7042 285.657 76.8292 285.103 76.8292ZM289.677 76.7099V75.9428L292.558 72.7894C292.896 72.4201 293.174 72.0991 293.393 71.8264C293.612 71.5508 293.774 71.2923 293.879 71.0508C293.987 70.8065 294.041 70.5508 294.041 70.2838C294.041 69.9769 293.967 69.7113 293.819 69.4869C293.674 69.2624 293.475 69.0892 293.222 68.967C292.97 68.8448 292.685 68.7838 292.37 68.7838C292.035 68.7838 291.742 68.8534 291.492 68.9926C291.245 69.1289 291.053 69.3207 290.917 69.5678C290.783 69.815 290.717 70.1048 290.717 70.4372H289.711C289.711 69.9258 289.829 69.4769 290.065 69.0906C290.301 68.7042 290.622 68.4031 291.028 68.1872C291.437 67.9713 291.896 67.8633 292.404 67.8633C292.916 67.8633 293.369 67.9713 293.764 68.1872C294.158 68.4031 294.468 68.6943 294.693 69.0607C294.917 69.4272 295.029 69.8349 295.029 70.2838C295.029 70.6048 294.971 70.9187 294.854 71.2255C294.741 71.5295 294.542 71.869 294.258 72.244C293.977 72.6161 293.586 73.0707 293.086 73.6076L291.126 75.7042V75.7724H295.183V76.7099H289.677Z" fill="#0D0C0C"/>
<path d="M276.077 219.633V210.905H277.133V218.695H281.19V219.633H276.077ZM285.4 219.752C284.9 219.752 284.45 219.653 284.05 219.454C283.649 219.255 283.328 218.982 283.086 218.636C282.845 218.289 282.713 217.894 282.69 217.451H283.713C283.753 217.846 283.932 218.172 284.25 218.431C284.571 218.687 284.954 218.814 285.4 218.814C285.758 218.814 286.077 218.731 286.355 218.563C286.636 218.395 286.856 218.165 287.015 217.873C287.177 217.577 287.258 217.243 287.258 216.871C287.258 216.491 287.175 216.151 287.007 215.853C286.842 215.552 286.615 215.314 286.325 215.141C286.035 214.968 285.704 214.88 285.332 214.877C285.065 214.874 284.791 214.915 284.51 215.001C284.229 215.083 283.997 215.189 283.815 215.32L282.827 215.201L283.355 210.905H287.889V211.843H284.241L283.935 214.417H283.986C284.165 214.275 284.389 214.157 284.659 214.063C284.929 213.969 285.21 213.922 285.503 213.922C286.037 213.922 286.513 214.05 286.93 214.306C287.351 214.559 287.68 214.905 287.919 215.346C288.16 215.786 288.281 216.289 288.281 216.854C288.281 217.411 288.156 217.908 287.906 218.346C287.659 218.78 287.318 219.124 286.883 219.377C286.449 219.627 285.954 219.752 285.4 219.752ZM292.923 219.752C292.36 219.752 291.859 219.655 291.419 219.462C290.981 219.269 290.633 219.001 290.374 218.657C290.119 218.31 289.98 217.908 289.957 217.451H291.031C291.053 217.732 291.15 217.975 291.321 218.18C291.491 218.381 291.714 218.537 291.99 218.648C292.265 218.759 292.571 218.814 292.906 218.814C293.281 218.814 293.613 218.749 293.903 218.618C294.193 218.488 294.42 218.306 294.585 218.073C294.749 217.84 294.832 217.57 294.832 217.263C294.832 216.942 294.752 216.66 294.593 216.415C294.434 216.168 294.201 215.975 293.894 215.836C293.588 215.697 293.213 215.627 292.769 215.627H292.071V214.689H292.769C293.116 214.689 293.42 214.627 293.681 214.502C293.946 214.377 294.151 214.201 294.299 213.974C294.45 213.746 294.525 213.479 294.525 213.172C294.525 212.877 294.46 212.62 294.329 212.401C294.198 212.182 294.014 212.012 293.775 211.89C293.539 211.768 293.261 211.707 292.94 211.707C292.639 211.707 292.355 211.762 292.088 211.873C291.823 211.981 291.607 212.138 291.44 212.346C291.272 212.55 291.181 212.797 291.167 213.087H290.144C290.161 212.63 290.299 212.229 290.558 211.886C290.816 211.539 291.154 211.269 291.572 211.076C291.992 210.883 292.454 210.786 292.957 210.786C293.497 210.786 293.96 210.895 294.346 211.114C294.732 211.33 295.029 211.616 295.237 211.971C295.444 212.326 295.548 212.709 295.548 213.121C295.548 213.613 295.419 214.032 295.16 214.378C294.904 214.725 294.556 214.965 294.116 215.099V215.167C294.667 215.258 295.097 215.492 295.407 215.87C295.717 216.245 295.872 216.709 295.872 217.263C295.872 217.738 295.742 218.164 295.484 218.542C295.228 218.917 294.879 219.212 294.436 219.428C293.992 219.644 293.488 219.752 292.923 219.752Z" fill="#0D0C0C"/>
<path d="M257.152 282.616V273.888H258.209V281.678H262.266V282.616H257.152ZM266.476 282.735C265.976 282.735 265.526 282.635 265.125 282.437C264.725 282.238 264.404 281.965 264.162 281.618C263.921 281.272 263.789 280.877 263.766 280.434H264.789C264.829 280.829 265.007 281.155 265.326 281.414C265.647 281.67 266.03 281.797 266.476 281.797C266.834 281.797 267.152 281.714 267.431 281.546C267.712 281.378 267.932 281.148 268.091 280.856C268.253 280.56 268.334 280.226 268.334 279.854C268.334 279.474 268.25 279.134 268.083 278.836C267.918 278.535 267.691 278.297 267.401 278.124C267.111 277.951 266.78 277.863 266.408 277.86C266.141 277.857 265.867 277.898 265.586 277.983C265.304 278.066 265.073 278.172 264.891 278.303L263.902 278.184L264.431 273.888H268.965V274.826H265.317L265.01 277.4H265.061C265.24 277.258 265.465 277.14 265.735 277.046C266.005 276.952 266.286 276.905 266.579 276.905C267.113 276.905 267.588 277.033 268.006 277.289C268.427 277.542 268.756 277.888 268.995 278.329C269.236 278.769 269.357 279.272 269.357 279.837C269.357 280.394 269.232 280.891 268.982 281.329C268.735 281.763 268.394 282.107 267.959 282.36C267.525 282.61 267.03 282.735 266.476 282.735ZM270.845 280.826V279.957L274.68 273.888H275.311V275.235H274.885L271.987 279.82V279.888H277.152V280.826H270.845ZM274.953 282.616V280.562V280.157V273.888H275.959V282.616H274.953Z" fill="#0D0C0C"/>
<path d="M162.573 222.964V214.236H163.63V222.026H167.687V222.964H162.573ZM168.965 221.174V220.305L172.8 214.236H173.431V215.583H173.005L170.107 220.168V220.236H175.272V221.174H168.965ZM173.073 222.964V220.91V220.505V214.236H174.079V222.964H173.073ZM176.869 222.964V222.197L179.75 219.043C180.088 218.674 180.366 218.353 180.585 218.08C180.804 217.805 180.966 217.546 181.071 217.305C181.179 217.06 181.233 216.805 181.233 216.538C181.233 216.231 181.159 215.965 181.011 215.741C180.866 215.516 180.667 215.343 180.414 215.221C180.162 215.099 179.877 215.038 179.562 215.038C179.227 215.038 178.934 215.107 178.684 215.246C178.437 215.383 178.245 215.575 178.109 215.822C177.976 216.069 177.909 216.359 177.909 216.691H176.903C176.903 216.18 177.021 215.731 177.257 215.344C177.493 214.958 177.814 214.657 178.22 214.441C178.629 214.225 179.088 214.117 179.596 214.117C180.108 214.117 180.561 214.225 180.956 214.441C181.351 214.657 181.66 214.948 181.885 215.315C182.109 215.681 182.221 216.089 182.221 216.538C182.221 216.859 182.163 217.173 182.047 217.479C181.933 217.783 181.734 218.123 181.45 218.498C181.169 218.87 180.778 219.325 180.278 219.861L178.318 221.958V222.026H182.375V222.964H176.869Z" fill="#0D0C0C"/>
<path d="M118.1 270.867V262.14H119.156V269.93H123.213V270.867H118.1ZM127.645 270.987C127.083 270.987 126.581 270.89 126.141 270.697C125.703 270.504 125.355 270.235 125.097 269.891C124.841 269.545 124.702 269.143 124.679 268.685H125.753C125.776 268.967 125.872 269.21 126.043 269.414C126.213 269.616 126.436 269.772 126.712 269.883C126.987 269.994 127.293 270.049 127.628 270.049C128.003 270.049 128.335 269.984 128.625 269.853C128.915 269.722 129.142 269.541 129.307 269.308C129.472 269.075 129.554 268.805 129.554 268.498C129.554 268.177 129.475 267.894 129.316 267.65C129.156 267.403 128.924 267.21 128.617 267.07C128.31 266.931 127.935 266.862 127.492 266.862H126.793V265.924H127.492C127.838 265.924 128.142 265.862 128.404 265.737C128.668 265.612 128.874 265.435 129.022 265.208C129.172 264.981 129.247 264.714 129.247 264.407C129.247 264.112 129.182 263.854 129.051 263.636C128.921 263.417 128.736 263.247 128.497 263.124C128.262 263.002 127.983 262.941 127.662 262.941C127.361 262.941 127.077 262.997 126.81 263.107C126.546 263.215 126.33 263.373 126.162 263.58C125.995 263.785 125.904 264.032 125.889 264.322H124.867C124.884 263.864 125.022 263.464 125.28 263.12C125.539 262.773 125.877 262.504 126.294 262.31C126.715 262.117 127.176 262.021 127.679 262.021C128.219 262.021 128.682 262.13 129.068 262.349C129.455 262.565 129.752 262.85 129.959 263.205C130.166 263.56 130.27 263.944 130.27 264.356C130.27 264.847 130.141 265.266 129.882 265.613C129.627 265.96 129.279 266.2 128.838 266.333V266.401C129.389 266.492 129.82 266.727 130.129 267.104C130.439 267.479 130.594 267.944 130.594 268.498C130.594 268.972 130.465 269.398 130.206 269.776C129.951 270.151 129.601 270.447 129.158 270.663C128.715 270.879 128.21 270.987 127.645 270.987ZM135.235 270.987C134.877 270.981 134.519 270.913 134.161 270.782C133.803 270.651 133.476 270.431 133.181 270.122C132.885 269.809 132.648 269.387 132.469 268.856C132.29 268.322 132.201 267.651 132.201 266.845C132.201 266.072 132.273 265.387 132.418 264.791C132.563 264.191 132.773 263.687 133.049 263.278C133.324 262.866 133.656 262.553 134.046 262.34C134.438 262.127 134.879 262.021 135.371 262.021C135.86 262.021 136.294 262.119 136.675 262.315C137.058 262.508 137.371 262.778 137.612 263.124C137.854 263.471 138.01 263.87 138.081 264.322H137.041C136.945 263.93 136.757 263.604 136.479 263.346C136.201 263.087 135.831 262.958 135.371 262.958C134.695 262.958 134.162 263.252 133.773 263.84C133.387 264.428 133.192 265.254 133.189 266.316H133.257C133.416 266.075 133.605 265.869 133.824 265.698C134.046 265.525 134.29 265.391 134.557 265.298C134.824 265.204 135.107 265.157 135.405 265.157C135.905 265.157 136.362 265.282 136.777 265.532C137.192 265.779 137.524 266.122 137.774 266.559C138.024 266.994 138.149 267.492 138.149 268.055C138.149 268.595 138.029 269.089 137.787 269.538C137.546 269.984 137.206 270.339 136.769 270.603C136.334 270.864 135.823 270.992 135.235 270.987ZM135.235 270.049C135.593 270.049 135.914 269.96 136.198 269.781C136.485 269.602 136.71 269.362 136.875 269.06C137.043 268.759 137.127 268.424 137.127 268.055C137.127 267.694 137.046 267.366 136.884 267.07C136.725 266.772 136.504 266.535 136.223 266.359C135.945 266.183 135.627 266.095 135.269 266.095C134.999 266.095 134.747 266.148 134.514 266.256C134.281 266.362 134.077 266.506 133.901 266.691C133.727 266.876 133.591 267.087 133.492 267.326C133.392 267.562 133.343 267.81 133.343 268.072C133.343 268.418 133.424 268.742 133.585 269.043C133.75 269.345 133.975 269.587 134.259 269.772C134.546 269.957 134.871 270.049 135.235 270.049Z" fill="#0D0C0C"/>
<path d="M110.036 65.9943V57.2671H111.093V65.0568H115.15V65.9943H110.036ZM119.582 66.1136C119.019 66.1136 118.518 66.0171 118.077 65.8239C117.64 65.6307 117.292 65.3622 117.033 65.0185C116.778 64.6719 116.639 64.2699 116.616 63.8125H117.69C117.712 64.0938 117.809 64.3367 117.979 64.5412C118.15 64.7429 118.373 64.8992 118.649 65.0099C118.924 65.1207 119.229 65.1761 119.565 65.1761C119.94 65.1761 120.272 65.1108 120.562 64.9801C120.852 64.8494 121.079 64.6676 121.244 64.4347C121.408 64.2017 121.491 63.9318 121.491 63.625C121.491 63.304 121.411 63.0213 121.252 62.777C121.093 62.5298 120.86 62.3367 120.553 62.1974C120.247 62.0582 119.872 61.9886 119.428 61.9886H118.729V61.0511H119.428C119.775 61.0511 120.079 60.9886 120.34 60.8636C120.604 60.7386 120.81 60.5625 120.958 60.3352C121.109 60.108 121.184 59.8409 121.184 59.5341C121.184 59.2386 121.119 58.9815 120.988 58.7628C120.857 58.544 120.673 58.3736 120.434 58.2514C120.198 58.1293 119.92 58.0682 119.599 58.0682C119.298 58.0682 119.014 58.1236 118.747 58.2344C118.482 58.3423 118.266 58.5 118.099 58.7074C117.931 58.9119 117.84 59.1591 117.826 59.4489H116.803C116.82 58.9915 116.958 58.5909 117.217 58.2472C117.475 57.9006 117.813 57.6307 118.231 57.4375C118.651 57.2443 119.113 57.1477 119.616 57.1477C120.156 57.1477 120.619 57.2571 121.005 57.4759C121.391 57.6918 121.688 57.9773 121.896 58.3324C122.103 58.6875 122.207 59.071 122.207 59.483C122.207 59.9744 122.077 60.3935 121.819 60.7401C121.563 61.0867 121.215 61.3267 120.775 61.4602V61.5284C121.326 61.6193 121.756 61.8537 122.066 62.2315C122.376 62.6065 122.531 63.071 122.531 63.625C122.531 64.0994 122.401 64.5256 122.143 64.9034C121.887 65.2784 121.538 65.5739 121.095 65.7898C120.651 66.0057 120.147 66.1136 119.582 66.1136ZM124.274 65.9943V65.2273L127.154 62.0739C127.492 61.7046 127.771 61.3835 127.989 61.1108C128.208 60.8352 128.37 60.5767 128.475 60.3352C128.583 60.0909 128.637 59.8352 128.637 59.5682C128.637 59.2614 128.563 58.9957 128.416 58.7713C128.271 58.5469 128.072 58.3736 127.819 58.2514C127.566 58.1293 127.282 58.0682 126.967 58.0682C126.631 58.0682 126.339 58.1378 126.089 58.277C125.842 58.4134 125.65 58.6051 125.514 58.8523C125.38 59.0994 125.313 59.3892 125.313 59.7216H124.308C124.308 59.2102 124.426 58.7614 124.661 58.375C124.897 57.9886 125.218 57.6875 125.624 57.4716C126.033 57.2557 126.492 57.1477 127.001 57.1477C127.512 57.1477 127.965 57.2557 128.36 57.4716C128.755 57.6875 129.065 57.9787 129.289 58.3452C129.514 58.7117 129.626 59.1193 129.626 59.5682C129.626 59.8892 129.568 60.2031 129.451 60.5099C129.337 60.8139 129.139 61.1534 128.854 61.5284C128.573 61.9006 128.183 62.3551 127.683 62.8921L125.722 64.9886V65.0568H129.779V65.9943H124.274Z" fill="#0D0C0C"/>
<path d="M110.081 231.619V222.892H111.138V230.681H115.195V231.619H110.081ZM119.627 231.738C119.064 231.738 118.563 231.642 118.122 231.448C117.685 231.255 117.337 230.987 117.078 230.643C116.823 230.296 116.684 229.894 116.661 229.437H117.735C117.757 229.718 117.854 229.961 118.024 230.166C118.195 230.367 118.418 230.524 118.694 230.635C118.969 230.745 119.274 230.801 119.61 230.801C119.985 230.801 120.317 230.735 120.607 230.605C120.897 230.474 121.124 230.292 121.289 230.059C121.453 229.826 121.536 229.556 121.536 229.25C121.536 228.929 121.456 228.646 121.297 228.402C121.138 228.154 120.905 227.961 120.598 227.822C120.292 227.683 119.917 227.613 119.473 227.613H118.774V226.676H119.473C119.82 226.676 120.124 226.613 120.385 226.488C120.649 226.363 120.855 226.187 121.003 225.96C121.154 225.733 121.229 225.465 121.229 225.159C121.229 224.863 121.164 224.606 121.033 224.387C120.902 224.169 120.718 223.998 120.479 223.876C120.243 223.754 119.965 223.693 119.644 223.693C119.343 223.693 119.059 223.748 118.792 223.859C118.527 223.967 118.311 224.125 118.144 224.332C117.976 224.537 117.885 224.784 117.871 225.073H116.848C116.865 224.616 117.003 224.215 117.262 223.872C117.52 223.525 117.858 223.255 118.276 223.062C118.696 222.869 119.158 222.772 119.661 222.772C120.201 222.772 120.664 222.882 121.05 223.1C121.436 223.316 121.733 223.602 121.941 223.957C122.148 224.312 122.252 224.696 122.252 225.108C122.252 225.599 122.122 226.018 121.864 226.365C121.608 226.711 121.26 226.951 120.82 227.085V227.153C121.371 227.244 121.801 227.478 122.111 227.856C122.421 228.231 122.576 228.696 122.576 229.25C122.576 229.724 122.446 230.15 122.188 230.528C121.932 230.903 121.583 231.198 121.14 231.414C120.696 231.63 120.192 231.738 119.627 231.738ZM127.046 231.738C126.546 231.738 126.095 231.639 125.695 231.44C125.294 231.241 124.973 230.968 124.732 230.622C124.49 230.275 124.358 229.88 124.336 229.437H125.358C125.398 229.832 125.577 230.159 125.895 230.417C126.216 230.673 126.6 230.801 127.046 230.801C127.404 230.801 127.722 230.717 128 230.549C128.282 230.382 128.502 230.152 128.661 229.859C128.823 229.563 128.904 229.23 128.904 228.858C128.904 228.477 128.82 228.137 128.652 227.839C128.488 227.538 128.26 227.301 127.97 227.127C127.681 226.954 127.35 226.866 126.978 226.863C126.711 226.86 126.436 226.902 126.155 226.987C125.874 227.069 125.642 227.176 125.461 227.306L124.472 227.187L125 222.892H129.534V223.829H125.887L125.58 226.403H125.631C125.81 226.261 126.034 226.143 126.304 226.049C126.574 225.956 126.855 225.909 127.148 225.909C127.682 225.909 128.158 226.037 128.576 226.292C128.996 226.545 129.326 226.892 129.564 227.332C129.806 227.772 129.926 228.275 129.926 228.84C129.926 229.397 129.801 229.894 129.551 230.332C129.304 230.767 128.963 231.11 128.529 231.363C128.094 231.613 127.6 231.738 127.046 231.738Z" fill="#0D0C0C"/>
<path d="M107.668 124.069V115.341H108.725V123.131H112.782V124.069H107.668ZM117.214 124.188C116.651 124.188 116.15 124.091 115.709 123.898C115.272 123.705 114.924 123.437 114.665 123.093C114.41 122.746 114.271 122.344 114.248 121.887H115.322C115.344 122.168 115.441 122.411 115.611 122.616C115.782 122.817 116.005 122.973 116.28 123.084C116.556 123.195 116.861 123.25 117.197 123.25C117.572 123.25 117.904 123.185 118.194 123.054C118.484 122.924 118.711 122.742 118.876 122.509C119.04 122.276 119.123 122.006 119.123 121.699C119.123 121.378 119.043 121.096 118.884 120.851C118.725 120.604 118.492 120.411 118.185 120.272C117.879 120.133 117.504 120.063 117.06 120.063H116.361V119.125H117.06C117.407 119.125 117.711 119.063 117.972 118.938C118.236 118.813 118.442 118.637 118.59 118.41C118.741 118.182 118.816 117.915 118.816 117.608C118.816 117.313 118.751 117.056 118.62 116.837C118.489 116.618 118.305 116.448 118.066 116.326C117.83 116.204 117.552 116.142 117.231 116.142C116.93 116.142 116.646 116.198 116.379 116.309C116.114 116.417 115.898 116.574 115.731 116.782C115.563 116.986 115.472 117.233 115.458 117.523H114.435C114.452 117.066 114.59 116.665 114.849 116.321C115.107 115.975 115.445 115.705 115.863 115.512C116.283 115.319 116.745 115.222 117.248 115.222C117.788 115.222 118.251 115.331 118.637 115.55C119.023 115.766 119.32 116.052 119.528 116.407C119.735 116.762 119.839 117.145 119.839 117.557C119.839 118.049 119.709 118.468 119.451 118.814C119.195 119.161 118.847 119.401 118.407 119.535V119.603C118.958 119.694 119.388 119.928 119.698 120.306C120.008 120.681 120.163 121.145 120.163 121.699C120.163 122.174 120.033 122.6 119.775 122.978C119.519 123.353 119.17 123.648 118.727 123.864C118.283 124.08 117.779 124.188 117.214 124.188ZM124.854 124.188C124.292 124.188 123.79 124.091 123.35 123.898C122.913 123.705 122.565 123.437 122.306 123.093C122.05 122.746 121.911 122.344 121.888 121.887H122.962C122.985 122.168 123.082 122.411 123.252 122.616C123.423 122.817 123.646 122.973 123.921 123.084C124.197 123.195 124.502 123.25 124.837 123.25C125.212 123.25 125.545 123.185 125.834 123.054C126.124 122.924 126.352 122.742 126.516 122.509C126.681 122.276 126.763 122.006 126.763 121.699C126.763 121.378 126.684 121.096 126.525 120.851C126.366 120.604 126.133 120.411 125.826 120.272C125.519 120.133 125.144 120.063 124.701 120.063H124.002V119.125H124.701C125.048 119.125 125.352 119.063 125.613 118.938C125.877 118.813 126.083 118.637 126.231 118.41C126.381 118.182 126.457 117.915 126.457 117.608C126.457 117.313 126.391 117.056 126.261 116.837C126.13 116.618 125.945 116.448 125.707 116.326C125.471 116.204 125.192 116.142 124.871 116.142C124.57 116.142 124.286 116.198 124.019 116.309C123.755 116.417 123.539 116.574 123.371 116.782C123.204 116.986 123.113 117.233 123.099 117.523H122.076C122.093 117.066 122.231 116.665 122.489 116.321C122.748 115.975 123.086 115.705 123.504 115.512C123.924 115.319 124.386 115.222 124.888 115.222C125.428 115.222 125.891 115.331 126.278 115.55C126.664 115.766 126.961 116.052 127.168 116.407C127.376 116.762 127.479 117.145 127.479 117.557C127.479 118.049 127.35 118.468 127.092 118.814C126.836 119.161 126.488 119.401 126.048 119.535V119.603C126.599 119.694 127.029 119.928 127.339 120.306C127.648 120.681 127.803 121.145 127.803 121.699C127.803 122.174 127.674 122.6 127.415 122.978C127.16 123.353 126.81 123.648 126.367 123.864C125.924 124.08 125.42 124.188 124.854 124.188Z" fill="#0D0C0C"/>
<path d="M108.668 174.331V165.604H109.725V173.393H113.782V174.331H108.668ZM118.214 174.45C117.651 174.45 117.15 174.354 116.709 174.16C116.272 173.967 115.924 173.699 115.665 173.355C115.41 173.008 115.271 172.606 115.248 172.149H116.322C116.344 172.43 116.441 172.673 116.611 172.878C116.782 173.079 117.005 173.236 117.281 173.346C117.556 173.457 117.861 173.513 118.197 173.513C118.572 173.513 118.904 173.447 119.194 173.317C119.484 173.186 119.711 173.004 119.876 172.771C120.04 172.538 120.123 172.268 120.123 171.962C120.123 171.641 120.043 171.358 119.884 171.114C119.725 170.866 119.492 170.673 119.185 170.534C118.879 170.395 118.504 170.325 118.06 170.325H117.361V169.388H118.06C118.407 169.388 118.711 169.325 118.972 169.2C119.236 169.075 119.442 168.899 119.59 168.672C119.741 168.444 119.816 168.177 119.816 167.871C119.816 167.575 119.751 167.318 119.62 167.099C119.489 166.881 119.305 166.71 119.066 166.588C118.83 166.466 118.552 166.405 118.231 166.405C117.93 166.405 117.646 166.46 117.379 166.571C117.114 166.679 116.898 166.837 116.731 167.044C116.563 167.248 116.472 167.496 116.458 167.785H115.435C115.452 167.328 115.59 166.927 115.849 166.584C116.107 166.237 116.445 165.967 116.863 165.774C117.283 165.581 117.745 165.484 118.248 165.484C118.788 165.484 119.251 165.594 119.637 165.812C120.023 166.028 120.32 166.314 120.528 166.669C120.735 167.024 120.839 167.408 120.839 167.819C120.839 168.311 120.709 168.73 120.451 169.077C120.195 169.423 119.847 169.663 119.407 169.797V169.865C119.958 169.956 120.388 170.19 120.698 170.568C121.008 170.943 121.163 171.408 121.163 171.962C121.163 172.436 121.033 172.862 120.775 173.24C120.519 173.615 120.17 173.91 119.727 174.126C119.283 174.342 118.779 174.45 118.214 174.45ZM122.701 172.541V171.672L126.536 165.604H127.167V166.95H126.741L123.843 171.535V171.604H129.008V172.541H122.701ZM126.809 174.331V172.277V171.872V165.604H127.815V174.331H126.809Z" fill="#0D0C0C"/>
<path d="M11.3402 40.9931V32.2658H12.397V40.0556H16.4538V40.9931H11.3402ZM20.4542 32.2658V40.9931H19.3973V33.3738H19.3462L17.2155 34.7885V33.7147L19.3973 32.2658H20.4542ZM26.0323 32.2658V40.9931H24.9755V33.3738H24.9243L22.7937 34.7885V33.7147L24.9755 32.2658H26.0323Z" fill="#0D0C0C"/>
<path d="M8.1296 201.661V192.933H9.18642V200.723H13.2432V201.661H8.1296ZM17.2436 192.933V201.661H16.1868V194.041H16.1356L14.005 195.456V194.382L16.1868 192.933H17.2436ZM22.7024 201.78C22.1399 201.78 21.6385 201.683 21.1981 201.49C20.7606 201.297 20.4126 201.029 20.1541 200.685C19.8984 200.338 19.7592 199.936 19.7365 199.479H20.8104C20.8331 199.76 20.9297 200.003 21.1001 200.208C21.2706 200.409 21.4936 200.566 21.7692 200.676C22.0447 200.787 22.3501 200.843 22.6854 200.843C23.0604 200.843 23.3927 200.777 23.6825 200.647C23.9723 200.516 24.1996 200.334 24.3643 200.101C24.5291 199.868 24.6115 199.598 24.6115 199.291C24.6115 198.97 24.5319 198.688 24.3729 198.443C24.2138 198.196 23.9808 198.003 23.674 197.864C23.3672 197.725 22.9922 197.655 22.549 197.655H21.8501V196.718H22.549C22.8956 196.718 23.1996 196.655 23.4609 196.53C23.7251 196.405 23.9311 196.229 24.0788 196.002C24.2294 195.774 24.3047 195.507 24.3047 195.2C24.3047 194.905 24.2393 194.648 24.1087 194.429C23.978 194.21 23.7933 194.04 23.5547 193.918C23.3189 193.796 23.0405 193.735 22.7194 193.735C22.4183 193.735 22.1342 193.79 21.8672 193.901C21.603 194.009 21.3871 194.166 21.2194 194.374C21.0518 194.578 20.9609 194.825 20.9467 195.115H19.924C19.941 194.658 20.0788 194.257 20.3373 193.914C20.5959 193.567 20.9339 193.297 21.3515 193.104C21.772 192.911 22.2337 192.814 22.7365 192.814C23.2763 192.814 23.7393 192.924 24.1257 193.142C24.5121 193.358 24.8089 193.644 25.0163 193.999C25.2237 194.354 25.3274 194.737 25.3274 195.149C25.3274 195.641 25.1981 196.06 24.9396 196.406C24.6839 196.753 24.3359 196.993 23.8956 197.127V197.195C24.4467 197.286 24.8771 197.52 25.1868 197.898C25.4964 198.273 25.6513 198.737 25.6513 199.291C25.6513 199.766 25.522 200.192 25.2635 200.57C25.0078 200.945 24.6584 201.24 24.2152 201.456C23.772 201.672 23.2677 201.78 22.7024 201.78Z" fill="#0D0C0C"/>
<path d="M11.9141 253.194V244.466H12.9709V252.256H17.0278V253.194H11.9141ZM21.0281 244.466V253.194H19.9713V245.574H19.9202L17.7895 246.989V245.915L19.9713 244.466H21.0281ZM23.3335 251.404V250.535L27.1687 244.466H27.7994V245.813H27.3733L24.4756 250.398V250.466H29.6403V251.404H23.3335ZM27.4415 253.194V251.14V250.735V244.466H28.4471V253.194H27.4415Z" fill="#0D0C0C"/>
<path d="M36.9582 147.096V138.368H38.015V146.158H42.0718V147.096H36.9582ZM43.5548 147.096V146.329L46.4355 143.175C46.7735 142.806 47.0519 142.485 47.2707 142.212C47.4894 141.937 47.6514 141.678 47.7565 141.437C47.8644 141.192 47.9184 140.937 47.9184 140.67C47.9184 140.363 47.8446 140.097 47.6968 139.873C47.5519 139.648 47.3531 139.475 47.1002 139.353C46.8474 139.231 46.5633 139.17 46.248 139.17C45.9127 139.17 45.6201 139.239 45.3701 139.378C45.123 139.515 44.9312 139.706 44.7948 139.954C44.6613 140.201 44.5946 140.491 44.5946 140.823H43.5889C43.5889 140.312 43.7068 139.863 43.9426 139.476C44.1784 139.09 44.4994 138.789 44.9056 138.573C45.3147 138.357 45.7735 138.249 46.2821 138.249C46.7934 138.249 47.2465 138.357 47.6414 138.573C48.0363 138.789 48.346 139.08 48.5704 139.447C48.7948 139.813 48.9071 140.221 48.9071 140.67C48.9071 140.991 48.8488 141.304 48.7323 141.611C48.6187 141.915 48.4198 142.255 48.1357 142.63C47.8545 143.002 47.4639 143.456 46.9639 143.993L45.0036 146.09V146.158H49.0605V147.096H43.5548ZM53.7693 147.215C53.2068 147.215 52.7054 147.118 52.265 146.925C51.8275 146.732 51.4795 146.464 51.221 146.12C50.9653 145.773 50.8261 145.371 50.8034 144.914H51.8772C51.9 145.195 51.9965 145.438 52.167 145.643C52.3375 145.844 52.5605 146.001 52.836 146.111C53.1116 146.222 53.417 146.278 53.7522 146.278C54.1272 146.278 54.4596 146.212 54.7494 146.081C55.0392 145.951 55.2664 145.769 55.4312 145.536C55.596 145.303 55.6784 145.033 55.6784 144.726C55.6784 144.405 55.5988 144.123 55.4397 143.878C55.2806 143.631 55.0477 143.438 54.7409 143.299C54.434 143.16 54.059 143.09 53.6159 143.09H52.917V142.153H53.6159C53.9625 142.153 54.2664 142.09 54.5278 141.965C54.792 141.84 54.998 141.664 55.1457 141.437C55.2963 141.209 55.3715 140.942 55.3715 140.635C55.3715 140.34 55.3062 140.083 55.1755 139.864C55.0448 139.645 54.8602 139.475 54.6215 139.353C54.3857 139.231 54.1073 139.17 53.7863 139.17C53.4852 139.17 53.2011 139.225 52.934 139.336C52.6698 139.444 52.4539 139.601 52.2863 139.809C52.1187 140.013 52.0278 140.26 52.0136 140.55H50.9909C51.0079 140.093 51.1457 139.692 51.4042 139.349C51.6627 139.002 52.0008 138.732 52.4184 138.539C52.8389 138.346 53.3005 138.249 53.8034 138.249C54.3431 138.249 54.8062 138.358 55.1926 138.577C55.5789 138.793 55.8758 139.079 56.0832 139.434C56.2906 139.789 56.3943 140.172 56.3943 140.584C56.3943 141.076 56.265 141.495 56.0065 141.841C55.7508 142.188 55.4028 142.428 54.9625 142.562V142.63C55.5136 142.721 55.944 142.955 56.2536 143.333C56.5633 143.708 56.7181 144.172 56.7181 144.726C56.7181 145.201 56.5889 145.627 56.3304 146.005C56.0747 146.38 55.7252 146.675 55.2821 146.891C54.8389 147.107 54.3346 147.215 53.7693 147.215Z" fill="#0D0C0C"/>
<path d="M46.7067 281.715V272.988H47.7635V280.778H51.8203V281.715H46.7067ZM53.3033 281.715V280.948L56.1839 277.795C56.522 277.426 56.8004 277.105 57.0192 276.832C57.2379 276.556 57.3998 276.298 57.505 276.056C57.6129 275.812 57.6669 275.556 57.6669 275.289C57.6669 274.982 57.593 274.717 57.4453 274.492C57.3004 274.268 57.1015 274.095 56.8487 273.973C56.5959 273.85 56.3118 273.789 55.9964 273.789C55.6612 273.789 55.3686 273.859 55.1186 273.998C54.8714 274.134 54.6797 274.326 54.5433 274.573C54.4098 274.821 54.343 275.11 54.343 275.443H53.3373C53.3373 274.931 53.4552 274.482 53.691 274.096C53.9268 273.71 54.2479 273.409 54.6541 273.193C55.0632 272.977 55.522 272.869 56.0305 272.869C56.5419 272.869 56.995 272.977 57.3899 273.193C57.7848 273.409 58.0944 273.7 58.3189 274.066C58.5433 274.433 58.6555 274.84 58.6555 275.289C58.6555 275.61 58.5973 275.924 58.4808 276.231C58.3672 276.535 58.1683 276.875 57.8842 277.25C57.603 277.622 57.2123 278.076 56.7123 278.613L54.7521 280.71V280.778H58.8089V281.715H53.3033ZM63.2962 281.835C62.7962 281.835 62.3459 281.735 61.9453 281.536C61.5447 281.338 61.2237 281.065 60.9822 280.718C60.7408 280.372 60.6087 279.977 60.5859 279.534H61.6087C61.6484 279.929 61.8274 280.255 62.1456 280.514C62.4666 280.769 62.8501 280.897 63.2962 280.897C63.6541 280.897 63.9723 280.813 64.2507 280.646C64.5319 280.478 64.7521 280.248 64.9112 279.956C65.0731 279.66 65.1541 279.326 65.1541 278.954C65.1541 278.573 65.0703 278.234 64.9027 277.936C64.7379 277.634 64.5106 277.397 64.2209 277.224C63.9311 277.051 63.6001 276.963 63.228 276.96C62.9609 276.957 62.6868 276.998 62.4055 277.083C62.1243 277.166 61.8927 277.272 61.7109 277.403L60.7223 277.284L61.2507 272.988H65.7848V273.926H62.1371L61.8302 276.5H61.8814C62.0604 276.357 62.2848 276.24 62.5547 276.146C62.8246 276.052 63.1058 276.005 63.3984 276.005C63.9325 276.005 64.4084 276.133 64.826 276.389C65.2464 276.642 65.576 276.988 65.8146 277.429C66.0561 277.869 66.1768 278.372 66.1768 278.937C66.1768 279.494 66.0518 279.991 65.8018 280.429C65.5547 280.863 65.2138 281.207 64.7791 281.46C64.3444 281.71 63.8501 281.835 63.2962 281.835Z" fill="#0D0C0C"/>
<path d="M44.7889 193.782V185.055H45.8457V192.845H49.9026V193.782H44.7889ZM51.3855 193.782V193.015L54.2662 189.862C54.6043 189.492 54.8827 189.171 55.1014 188.899C55.3202 188.623 55.4821 188.365 55.5872 188.123C55.6952 187.879 55.7491 187.623 55.7491 187.356C55.7491 187.049 55.6753 186.784 55.5276 186.559C55.3827 186.335 55.1838 186.162 54.931 186.039C54.6781 185.917 54.394 185.856 54.0787 185.856C53.7435 185.856 53.4508 185.926 53.2008 186.065C52.9537 186.201 52.7619 186.393 52.6256 186.64C52.492 186.887 52.4253 187.177 52.4253 187.51H51.4196C51.4196 186.998 51.5375 186.549 51.7733 186.163C52.0091 185.777 52.3301 185.475 52.7364 185.26C53.1454 185.044 53.6043 184.936 54.1128 184.936C54.6241 184.936 55.0773 185.044 55.4722 185.26C55.867 185.475 56.1767 185.767 56.4011 186.133C56.6256 186.5 56.7378 186.907 56.7378 187.356C56.7378 187.677 56.6795 187.991 56.5631 188.298C56.4494 188.602 56.2506 188.941 55.9665 189.316C55.6852 189.689 55.2946 190.143 54.7946 190.68L52.8344 192.777V192.845H56.8912V193.782H51.3855ZM58.2591 191.992V191.123L62.0943 185.055H62.725V186.402H62.2989L59.4011 190.987V191.055H64.5659V191.992H58.2591ZM62.367 193.782V191.728V191.323V185.055H63.3727V193.782H62.367Z" fill="#0D0C0C"/>
<path d="M44.1714 106.48V97.7524H45.2282V105.542H49.285V106.48H44.1714ZM50.768 106.48V105.713L53.6487 102.559C53.9867 102.19 54.2651 101.869 54.4839 101.596C54.7026 101.321 54.8646 101.062 54.9697 100.821C55.0776 100.576 55.1316 100.321 55.1316 100.054C55.1316 99.7467 55.0577 99.4811 54.91 99.2566C54.7651 99.0322 54.5663 98.8589 54.3134 98.7368C54.0606 98.6146 53.7765 98.5535 53.4612 98.5535C53.1259 98.5535 52.8333 98.6231 52.5833 98.7623C52.3362 98.8987 52.1444 99.0905 52.008 99.3376C51.8745 99.5848 51.8077 99.8745 51.8077 100.207H50.8021C50.8021 99.6956 50.92 99.2467 51.1558 98.8603C51.3916 98.474 51.7126 98.1728 52.1188 97.9569C52.5279 97.741 52.9867 97.6331 53.4952 97.6331C54.0066 97.6331 54.4597 97.741 54.8546 97.9569C55.2495 98.1728 55.5592 98.464 55.7836 98.8305C56.008 99.197 56.1202 99.6047 56.1202 100.054C56.1202 100.375 56.062 100.688 55.9455 100.995C55.8319 101.299 55.633 101.639 55.3489 102.014C55.0677 102.386 54.6771 102.84 54.1771 103.377L52.2168 105.474V105.542H56.2737V106.48H50.768ZM58.0336 106.48V105.713L60.9143 102.559C61.2524 102.19 61.5308 101.869 61.7495 101.596C61.9683 101.321 62.1302 101.062 62.2353 100.821C62.3433 100.576 62.3972 100.321 62.3972 100.054C62.3972 99.7467 62.3234 99.4811 62.1756 99.2566C62.0308 99.0322 61.8319 98.8589 61.5791 98.7368C61.3262 98.6146 61.0421 98.5535 60.7268 98.5535C60.3916 98.5535 60.0989 98.6231 59.8489 98.7623C59.6018 98.8987 59.41 99.0905 59.2737 99.3376C59.1401 99.5848 59.0734 99.8745 59.0734 100.207H58.0677C58.0677 99.6956 58.1856 99.2467 58.4214 98.8603C58.6572 98.474 58.9782 98.1728 59.3845 97.9569C59.7935 97.741 60.2524 97.6331 60.7609 97.6331C61.2722 97.6331 61.7254 97.741 62.1202 97.9569C62.5151 98.1728 62.8248 98.464 63.0492 98.8305C63.2737 99.197 63.3859 99.6047 63.3859 100.054C63.3859 100.375 63.3276 100.688 63.2112 100.995C63.0975 101.299 62.8987 101.639 62.6146 102.014C62.3333 102.386 61.9427 102.84 61.4427 103.377L59.4825 105.474V105.542H63.5393V106.48H58.0336Z" fill="#0D0C0C"/>
<path d="M8.01408 95.9494V87.2221H9.0709V95.0119H13.1277V95.9494H8.01408ZM17.1281 87.2221V95.9494H16.0713V88.3301H16.0201L13.8894 89.7449V88.671L16.0713 87.2221H17.1281ZM19.638 95.9494V95.1824L22.5187 92.0289C22.8568 91.6596 23.1352 91.3386 23.3539 91.0659C23.5727 90.7903 23.7346 90.5318 23.8397 90.2903C23.9477 90.046 24.0016 89.7903 24.0016 89.5233C24.0016 89.2164 23.9278 88.9508 23.7801 88.7264C23.6352 88.502 23.4363 88.3287 23.1835 88.2065C22.9306 88.0843 22.6465 88.0233 22.3312 88.0233C21.996 88.0233 21.7034 88.0929 21.4534 88.2321C21.2062 88.3684 21.0144 88.5602 20.8781 88.8074C20.7445 89.0545 20.6778 89.3443 20.6778 89.6767H19.6721C19.6721 89.1653 19.79 88.7164 20.0258 88.3301C20.2616 87.9437 20.5826 87.6426 20.9889 87.4267C21.398 87.2108 21.8568 87.1028 22.3653 87.1028C22.8766 87.1028 23.3298 87.2108 23.7247 87.4267C24.1195 87.6426 24.4292 87.9338 24.6536 88.3003C24.8781 88.6667 24.9903 89.0744 24.9903 89.5233C24.9903 89.8443 24.932 90.1582 24.8156 90.465C24.7019 90.769 24.5031 91.1085 24.219 91.4835C23.9377 91.8557 23.5471 92.3102 23.0471 92.8471L21.0869 94.9437V95.0119H25.1437V95.9494H19.638Z" fill="#0D0C0C"/>
<path d="M322.931 142.946H321.874C321.812 142.642 321.703 142.375 321.546 142.145C321.393 141.915 321.205 141.722 320.984 141.566C320.765 141.406 320.522 141.287 320.255 141.208C319.988 141.128 319.71 141.088 319.42 141.088C318.891 141.088 318.413 141.222 317.984 141.489C317.558 141.756 317.218 142.149 316.965 142.669C316.715 143.189 316.59 143.827 316.59 144.583C316.59 145.338 316.715 145.976 316.965 146.496C317.218 147.016 317.558 147.409 317.984 147.676C318.413 147.943 318.891 148.077 319.42 148.077C319.71 148.077 319.988 148.037 320.255 147.958C320.522 147.878 320.765 147.76 320.984 147.604C321.205 147.445 321.393 147.25 321.546 147.02C321.703 146.787 321.812 146.52 321.874 146.219H322.931C322.852 146.665 322.707 147.064 322.497 147.416C322.286 147.769 322.025 148.068 321.712 148.316C321.4 148.56 321.049 148.746 320.66 148.874C320.274 149.002 319.86 149.066 319.42 149.066C318.676 149.066 318.014 148.884 317.434 148.52C316.855 148.156 316.399 147.639 316.066 146.969C315.734 146.298 315.568 145.503 315.568 144.583C315.568 143.662 315.734 142.867 316.066 142.196C316.399 141.526 316.855 141.009 317.434 140.645C318.014 140.281 318.676 140.1 319.42 140.1C319.86 140.1 320.274 140.164 320.66 140.291C321.049 140.419 321.4 140.607 321.712 140.854C322.025 141.098 322.286 141.396 322.497 141.749C322.707 142.098 322.852 142.497 322.931 142.946ZM324.486 148.946V148.179L327.366 145.026C327.704 144.656 327.983 144.335 328.201 144.063C328.42 143.787 328.582 143.529 328.687 143.287C328.795 143.043 328.849 142.787 328.849 142.52C328.849 142.213 328.775 141.948 328.628 141.723C328.483 141.499 328.284 141.325 328.031 141.203C327.778 141.081 327.494 141.02 327.179 141.02C326.844 141.02 326.551 141.09 326.301 141.229C326.054 141.365 325.862 141.557 325.726 141.804C325.592 142.051 325.525 142.341 325.525 142.673H324.52C324.52 142.162 324.638 141.713 324.873 141.327C325.109 140.941 325.43 140.639 325.836 140.423C326.245 140.208 326.704 140.1 327.213 140.1C327.724 140.1 328.177 140.208 328.572 140.423C328.967 140.639 329.277 140.931 329.501 141.297C329.726 141.664 329.838 142.071 329.838 142.52C329.838 142.841 329.78 143.155 329.663 143.462C329.549 143.766 329.351 144.105 329.067 144.48C328.785 144.852 328.395 145.307 327.895 145.844L325.934 147.941V148.009H329.991V148.946H324.486Z" fill="#0D0C0C"/>
<path d="M328.052 10.5629H326.995C326.932 10.259 326.823 9.99192 326.667 9.76181C326.513 9.5317 326.326 9.33851 326.104 9.18226C325.886 9.02317 325.643 8.90386 325.376 8.82431C325.109 8.74476 324.83 8.70499 324.54 8.70499C324.012 8.70499 323.533 8.83851 323.104 9.10556C322.678 9.37261 322.339 9.76607 322.086 10.286C321.836 10.8058 321.711 11.4436 321.711 12.1993C321.711 12.955 321.836 13.5928 322.086 14.1127C322.339 14.6325 322.678 15.026 323.104 15.2931C323.533 15.5601 324.012 15.6936 324.54 15.6936C324.83 15.6936 325.109 15.6539 325.376 15.5743C325.643 15.4948 325.886 15.3769 326.104 15.2206C326.326 15.0615 326.513 14.8669 326.667 14.6368C326.823 14.4039 326.932 14.1368 326.995 13.8357H328.052C327.972 14.2817 327.827 14.6808 327.617 15.0331C327.407 15.3854 327.145 15.6851 326.833 15.9323C326.52 16.1766 326.17 16.3627 325.78 16.4905C325.394 16.6183 324.981 16.6823 324.54 16.6823C323.796 16.6823 323.134 16.5004 322.555 16.1368C321.975 15.7732 321.519 15.2561 321.187 14.5857C320.854 13.9152 320.688 13.1198 320.688 12.1993C320.688 11.2789 320.854 10.4834 321.187 9.81295C321.519 9.14249 321.975 8.62545 322.555 8.26181C323.134 7.89817 323.796 7.71636 324.54 7.71636C324.981 7.71636 325.394 7.78028 325.78 7.90812C326.17 8.03596 326.52 8.22346 326.833 8.47062C327.145 8.71493 327.407 9.01323 327.617 9.3655C327.827 9.71493 327.972 10.1141 328.052 10.5629ZM332.674 7.83567V16.5629H331.617V8.94363H331.566L329.436 10.3584V9.28454L331.617 7.83567H332.674Z" fill="#0D0C0C"/>
<path d="M327.211 274.934H326.154C326.092 274.63 325.983 274.363 325.826 274.133C325.673 273.903 325.485 273.71 325.264 273.554C325.045 273.394 324.802 273.275 324.535 273.196C324.268 273.116 323.99 273.076 323.7 273.076C323.172 273.076 322.693 273.21 322.264 273.477C321.838 273.744 321.498 274.137 321.245 274.657C320.995 275.177 320.87 275.815 320.87 276.571C320.87 277.326 320.995 277.964 321.245 278.484C321.498 279.004 321.838 279.397 322.264 279.664C322.693 279.931 323.172 280.065 323.7 280.065C323.99 280.065 324.268 280.025 324.535 279.946C324.802 279.866 325.045 279.748 325.264 279.592C325.485 279.433 325.673 279.238 325.826 279.008C325.983 278.775 326.092 278.508 326.154 278.207H327.211C327.132 278.653 326.987 279.052 326.777 279.404C326.566 279.757 326.305 280.056 325.993 280.304C325.68 280.548 325.329 280.734 324.94 280.862C324.554 280.99 324.14 281.054 323.7 281.054C322.956 281.054 322.294 280.872 321.714 280.508C321.135 280.144 320.679 279.627 320.346 278.957C320.014 278.286 319.848 277.491 319.848 276.571C319.848 275.65 320.014 274.855 320.346 274.184C320.679 273.514 321.135 272.997 321.714 272.633C322.294 272.269 322.956 272.088 323.7 272.088C324.14 272.088 324.554 272.152 324.94 272.279C325.329 272.407 325.68 272.595 325.993 272.842C326.305 273.086 326.566 273.384 326.777 273.737C326.987 274.086 327.132 274.485 327.211 274.934ZM331.714 281.054C331.152 281.054 330.651 280.957 330.21 280.764C329.773 280.571 329.425 280.302 329.166 279.958C328.91 279.612 328.771 279.21 328.749 278.752H329.822C329.845 279.034 329.942 279.277 330.112 279.481C330.283 279.683 330.506 279.839 330.781 279.95C331.057 280.061 331.362 280.116 331.697 280.116C332.072 280.116 332.405 280.051 332.695 279.92C332.984 279.789 333.212 279.607 333.376 279.375C333.541 279.142 333.624 278.872 333.624 278.565C333.624 278.244 333.544 277.961 333.385 277.717C333.226 277.47 332.993 277.277 332.686 277.137C332.379 276.998 332.004 276.929 331.561 276.929H330.862V275.991H331.561C331.908 275.991 332.212 275.929 332.473 275.804C332.737 275.679 332.943 275.502 333.091 275.275C333.241 275.048 333.317 274.781 333.317 274.474C333.317 274.179 333.251 273.921 333.121 273.703C332.99 273.484 332.805 273.313 332.567 273.191C332.331 273.069 332.053 273.008 331.732 273.008C331.43 273.008 331.146 273.063 330.879 273.174C330.615 273.282 330.399 273.44 330.232 273.647C330.064 273.852 329.973 274.099 329.959 274.389H328.936C328.953 273.931 329.091 273.531 329.349 273.187C329.608 272.84 329.946 272.571 330.364 272.377C330.784 272.184 331.246 272.088 331.749 272.088C332.288 272.088 332.751 272.197 333.138 272.416C333.524 272.632 333.821 272.917 334.028 273.272C334.236 273.627 334.339 274.011 334.339 274.423C334.339 274.914 334.21 275.333 333.952 275.68C333.696 276.027 333.348 276.267 332.908 276.4V276.468C333.459 276.559 333.889 276.794 334.199 277.171C334.509 277.546 334.663 278.011 334.663 278.565C334.663 279.039 334.534 279.465 334.276 279.843C334.02 280.218 333.67 280.514 333.227 280.73C332.784 280.946 332.28 281.054 331.714 281.054Z" fill="#0D0C0C"/>
</g>
<defs>
<clipPath id="clip0_1_2">
<rect width="673" height="287" fill="white"/>
</clipPath>
</defs>
</svg>
